<svg width="256" height="78" viewBox="0 0 256 78" fill="none" xmlns="http://www.w3.org/2000/svg">
<g clip-path="url(#clip0_36_886)">
<path d="M4.94849 68.1119V15.0731C4.94849 10.9643 5.8932 7.87527 7.78262 5.8059C9.67205 3.73653 12.6111 2.70184 16.5999 2.70184H23.3479V11.4292H16.7799C15.8502 11.4292 15.1754 11.7891 14.7555 12.5089C14.3356 13.1986 14.1257 14.0234 14.1257 14.9831V68.1119H4.94849ZM0 29.2437V21.4161H23.3479V29.2437H0Z" fill="black"/>
<path d="M55.7378 68.7866C48.45 68.7866 42.7967 66.6723 38.778 62.4436C34.7892 58.1849 32.7948 52.1867 32.7948 44.4491V2.70178H41.972V44.764C41.972 49.5325 43.1716 53.2214 45.5709 55.8306C47.9702 58.4398 51.3591 59.7444 55.7378 59.7444C60.1465 59.7444 63.5504 58.4398 65.9497 55.8306C68.3789 53.2214 69.5936 49.5325 69.5936 44.764V2.70178H78.7708V44.4491C78.7708 52.1867 76.7614 58.1849 72.7426 62.4436C68.7238 66.6723 63.0556 68.7866 55.7378 68.7866Z" fill="black"/>
<path d="M119.708 68.1118V2.70178H128.886V68.1118H119.708ZM107.967 68.9216C102.809 68.9216 98.8198 67.2721 96.0006 63.9731C93.2115 60.6441 91.8169 55.9655 91.8169 49.9374V39.6355C91.8169 33.5774 93.1815 28.8988 95.9106 25.5998C98.6698 22.2708 102.539 20.6063 107.517 20.6063C110.276 20.6063 112.795 21.3261 115.075 22.7657C117.384 24.2052 119.244 26.2296 120.653 28.8388L119.708 38.3759C119.708 36.3965 119.348 34.702 118.629 33.2924C117.909 31.8829 116.859 30.8182 115.48 30.0984C114.13 29.3487 112.481 28.9738 110.531 28.9738C107.502 28.9738 105.148 29.9185 103.468 31.8079C101.819 33.6973 100.994 36.3515 100.994 39.7705V49.9374C100.994 53.3263 101.819 55.9505 103.468 57.81C105.148 59.6394 107.502 60.5541 110.531 60.5541C112.481 60.5541 114.13 60.1793 115.48 59.4295C116.859 58.6497 117.909 57.5401 118.629 56.1005C119.348 54.6609 119.708 52.9365 119.708 50.9271L120.338 60.7791C119.498 62.8784 118.044 64.7679 115.975 66.4473C113.935 68.0968 111.266 68.9216 107.967 68.9216Z" fill="black"/>
<path d="M254.945 32.6896L231.696 72.4197C231.696 72.4197 227.766 78.6777 218.008 76.0018L189.107 68.0764L189.699 68.2398L160.798 60.3144C151.04 57.6385 150.851 50.2509 150.851 50.2509L151.12 4.21918" stroke="black" stroke-width="1.93194" stroke-linecap="round" stroke-linejoin="round"/>
<path d="M241.929 41.175C241.398 45.3614 230.156 80.5479 194.057 59.1786C176.567 48.8253 157.978 51.1573 158.509 46.9709C159.039 42.7845 175.815 41.4625 195.978 44.0182C216.141 46.574 242.459 36.9886 241.929 41.175Z" fill="#FFEEAA"/>
<path d="M237.607 37.2694C237.077 41.4558 228.49 75.5356 192.391 54.1663C174.901 43.813 177.316 6.31073 156.843 41.9586C154.742 45.6179 175.699 35.5649 195.862 38.1206C216.025 40.6763 238.138 33.083 237.607 37.2694Z" fill="#87DE87"/>
<path d="M235.091 41.8126C235.091 47.2582 220.7 55.4289 207.389 55.4289C194.077 55.4289 182.66 48.8233 182.66 43.3777C182.66 37.9322 194.077 35.7088 207.389 35.7088C220.7 35.7088 235.091 36.3671 235.091 41.8126Z" fill="#FFAAAA"/>
<path d="M212.788 36.0218C212.788 41.4673 198.397 49.6381 185.086 49.6381C171.775 49.6381 160.358 43.0324 160.358 37.5869C160.358 32.1413 171.775 29.9179 185.086 29.9179C198.397 29.9179 212.788 30.5762 212.788 36.0218Z" fill="#FFB380"/>
<path d="M201.925 25.6676C229.478 32.4968 252.88 33.7317 254.195 28.4258C255.51 23.1199 234.24 13.2825 206.687 6.45333C179.135 -0.375861 155.732 -1.61077 154.417 3.6951C153.102 9.00096 174.372 18.8384 201.925 25.6676Z" stroke="black" stroke-width="0.800801" stroke-linecap="round" stroke-linejoin="round"/>
</g>
<defs>
<clipPath id="clip0_36_886">
<rect width="255.911" height="77.6267" fill="white"/>
</clipPath>
</defs>
</svg>
